<mxfile host="app.diagrams.net" modified="2024-06-12T11:44:35.321Z" agent="Mozilla/5.0 (Windows NT 10.0; Win64; x64) AppleWebKit/537.36 (KHTML, like Gecko) Chrome/125.0.0.0 Safari/537.36" etag="iy4ewoYLX8smq8dl544B" version="24.4.15" type="github">
  <diagram name="Page-1" id="kmFttaCbBJi7w1r8pD4a">
    <mxGraphModel dx="1914" dy="966" grid="1" gridSize="10" guides="1" tooltips="1" connect="1" arrows="1" fold="1" page="1" pageScale="1" pageWidth="850" pageHeight="1100" math="0" shadow="0">
      <root>
        <mxCell id="0" />
        <mxCell id="1" parent="0" />
        <mxCell id="aaxU_RlbdLB9UW62mv6u-13" value="PEMBELAJARAN TRADISIONAL" style="rounded=0;whiteSpace=wrap;html=1;fontSize=14;strokeWidth=4;" vertex="1" parent="1">
          <mxGeometry x="180" y="380" width="120" height="60" as="geometry" />
        </mxCell>
        <mxCell id="aaxU_RlbdLB9UW62mv6u-15" value="PEMBELAJARAN BERBASIS TEKNOLOGI" style="rounded=0;whiteSpace=wrap;html=1;fontSize=14;strokeWidth=4;" vertex="1" parent="1">
          <mxGeometry x="500" y="380" width="120" height="60" as="geometry" />
        </mxCell>
        <mxCell id="aaxU_RlbdLB9UW62mv6u-22" style="edgeStyle=orthogonalEdgeStyle;rounded=0;orthogonalLoop=1;jettySize=auto;html=1;exitX=0.5;exitY=1;exitDx=0;exitDy=0;entryX=0.5;entryY=0;entryDx=0;entryDy=0;" edge="1" parent="1" source="aaxU_RlbdLB9UW62mv6u-17" target="aaxU_RlbdLB9UW62mv6u-19">
          <mxGeometry relative="1" as="geometry" />
        </mxCell>
        <mxCell id="aaxU_RlbdLB9UW62mv6u-17" value="MOTIVASI DAN KETERLIBATAN SISWA" style="rounded=0;whiteSpace=wrap;html=1;fontSize=14;strokeWidth=4;" vertex="1" parent="1">
          <mxGeometry x="340" y="560" width="120" height="60" as="geometry" />
        </mxCell>
        <mxCell id="aaxU_RlbdLB9UW62mv6u-19" value="EFEKTIVITAS PEMBELAJARAN" style="rounded=0;whiteSpace=wrap;html=1;fontSize=14;strokeWidth=4;" vertex="1" parent="1">
          <mxGeometry x="340" y="730" width="120" height="60" as="geometry" />
        </mxCell>
        <mxCell id="aaxU_RlbdLB9UW62mv6u-20" value="" style="strokeWidth=2;html=1;shape=mxgraph.flowchart.annotation_2;align=left;labelPosition=right;pointerEvents=1;rotation=-90;" vertex="1" parent="1">
          <mxGeometry x="338.13" y="341.88" width="121.25" height="317.5" as="geometry" />
        </mxCell>
      </root>
    </mxGraphModel>
  </diagram>
</mxfile>
